<?xml version="1.0" encoding="iso-8859-1"?>
<!-- Generator: Adobe Illustrator 19.0.0, SVG Export Plug-In . SVG Version: 6.00 Build 0)  -->
<svg version="1.1" id="Capa_1" xmlns="http://www.w3.org/2000/svg" xmlns:xlink="http://www.w3.org/1999/xlink" x="0px" y="0px"
	 viewBox="0 0 512 512" style="enable-background:new 0 0 512 512;" xml:space="preserve">
<circle style="fill:#1976D1;" cx="256" cy="256" r="256"/>
<path style="fill:#1565BF;" d="M512,256c0-18.706-2.025-36.936-5.834-54.5L427.667,123L84.333,389L201.5,506.166
	C219.064,509.975,237.294,512,256,512C397.385,512,512,397.385,512,256z"/>
<rect x="84.33" y="123" style="fill:#FFFFFF;" width="343.33" height="266"/>
<rect x="255.57" y="123" style="fill:#E6E6E6;" width="172.09" height="266"/>
<path style="fill:#FF1B1B;" d="M118.666,235.957L118.666,235.957c-19.022,0-34.442-15.42-34.442-34.442v-48.801h68.884v48.801
	C153.108,220.537,137.688,235.957,118.666,235.957z"/>
<path style="fill:#FECBBB;" d="M187.338,235.957L187.338,235.957c-19.022,0-34.442-15.42-34.442-34.442v-48.801h68.884v48.801
	C221.78,220.537,206.36,235.957,187.338,235.957z"/>
<path style="fill:#FF1B1B;" d="M256.01,235.957L256.01,235.957c-19.022,0-34.442-15.42-34.442-34.442v-48.801h68.884v48.801
	C290.452,220.537,275.032,235.957,256.01,235.957z"/>
<path style="fill:#D60000;" d="M255.571,152.715v83.231c0.147,0.002,0.292,0.011,0.439,0.011l0,0
	c19.022,0,34.442-15.42,34.442-34.442v-48.801L255.571,152.715L255.571,152.715z"/>
<path style="fill:#FEAA90;" d="M324.683,235.957L324.683,235.957c-19.022,0-34.442-15.42-34.442-34.442v-48.801h68.884v48.801
	C359.124,220.537,343.704,235.957,324.683,235.957z"/>
<path style="fill:#D60000;" d="M393.355,235.957L393.355,235.957c-19.022,0-34.442-15.42-34.442-34.442v-48.801h68.884v48.801
	C427.797,220.537,412.376,235.957,393.355,235.957z"/>
<rect x="84.33" y="123" style="fill:#CED7DB;" width="343.33" height="38"/>
<rect x="255.57" y="123" style="fill:#AFBDC4;" width="172.09" height="38"/>
<g>
	<circle style="fill:#788F9B;" cx="108" cy="142" r="9.5"/>
	<circle style="fill:#788F9B;" cx="137.5" cy="142" r="9.5"/>
	<circle style="fill:#788F9B;" cx="167" cy="142" r="9.5"/>
</g>
<rect x="269.47" y="304.253" transform="matrix(-0.7071 0.7071 -0.7071 -0.7071 751.7567 417.1673)" style="fill:#455A64;" width="40.02" height="120.049"/>
<g>
	
		<rect x="236.25" y="347.071" transform="matrix(-0.7071 -0.7071 0.7071 -0.7071 252.9963 819.7505)" style="fill:#37474F;" width="120.049" height="20.814"/>
	<circle style="fill:#37474F;" cx="212.14" cy="286.93" r="92.03"/>
</g>
<path style="fill:#263238;" d="M277.22,352.008c35.942-35.942,35.942-94.215,0-130.157s-94.215-35.942-130.157,0
	c-0.191,0.191-0.367,0.392-0.556,0.584l130.128,130.128C276.828,352.375,277.029,352.199,277.22,352.008z"/>
<circle style="fill:#7AE5FE;" cx="212.14" cy="286.93" r="68.69"/>
<path style="fill:#00BED2;" d="M260.715,335.503c26.826-26.826,26.826-70.32,0-97.146s-70.32-26.826-97.146,0
	c-0.191,0.191-0.367,0.392-0.556,0.584l97.117,97.117C260.323,335.87,260.523,335.694,260.715,335.503z"/>
<g>
</g>
<g>
</g>
<g>
</g>
<g>
</g>
<g>
</g>
<g>
</g>
<g>
</g>
<g>
</g>
<g>
</g>
<g>
</g>
<g>
</g>
<g>
</g>
<g>
</g>
<g>
</g>
<g>
</g>
</svg>
